<svg width="511" height="618" viewBox="0 0 511 618" fill="none" xmlns="http://www.w3.org/2000/svg">
<g clip-path="url(#clip0_14_17)">
<path d="M134.216 544.052C127.689 544.052 121.441 540.876 117.619 535.353C112.932 528.552 112.853 519.571 117.434 512.697L152.872 459.541L25.3959 429.836C17.8472 428.076 11.9774 422.135 10.2972 414.567C8.60372 406.998 11.4137 399.134 17.5189 394.341L68.4749 354.288L9.36415 288.738C4.03269 282.816 2.68082 274.275 5.92411 266.994C9.1674 259.713 16.3746 254.987 24.3446 254.987H24.3579L112.629 255.084L108.284 190.433C107.772 182.7 111.736 175.357 118.486 171.543C125.236 167.729 133.572 168.129 139.94 172.56L192.209 208.991L168.195 84.0094C166.724 76.3942 169.757 68.6077 175.995 63.9944C182.232 59.3859 190.569 58.7426 197.41 62.3661L254.722 92.6312L290.566 11.9738C293.808 4.69414 301.03 0 309 0C316.97 0 324.192 4.69414 327.434 11.9738L363.278 92.63L420.59 62.3649C427.417 58.7353 435.768 59.3775 442.005 63.9932C448.242 68.6089 451.275 76.3942 449.805 84.0106L425.791 208.994L478.06 172.564C484.428 168.119 492.767 167.725 499.514 171.553C506.264 175.367 510.229 182.72 509.716 190.454L505.371 255.086L593.642 254.988H593.655C601.625 254.988 608.834 259.714 612.076 266.995C615.319 274.276 613.966 282.797 608.636 288.718L549.525 354.278L600.481 394.336C606.586 399.128 609.396 406.995 607.703 414.565C606.023 422.134 600.154 428.076 592.604 429.835L476.774 456.831L514.009 512.699C518.566 519.526 518.526 528.435 513.904 535.223C509.296 542.011 500.998 545.327 493.001 543.606L309.157 504.212L138.745 543.536C137.236 543.882 135.726 544.052 134.216 544.052Z" fill="#E6FC00"/>
<path d="M308.967 504.212L492.906 543.608C500.901 545.328 509.246 542.013 513.856 535.225C518.479 528.437 518.541 519.528 513.985 512.701L476.762 456.834L592.599 429.838C600.148 428.078 606.021 422.137 607.702 414.569C609.396 407 606.588 399.136 600.481 394.343L549.525 354.29L608.636 288.74C613.967 282.818 615.319 274.277 612.076 266.997C608.833 259.716 601.625 254.989 593.655 254.989H593.642L505.371 255.087L509.716 190.436C510.228 182.702 506.264 175.36 499.514 171.546C492.764 167.718 484.427 168.118 478.06 172.562L425.791 208.994L449.805 84.013C451.276 76.3978 448.243 68.6113 442.005 63.998C435.768 59.3835 427.417 58.7402 420.59 62.3697L363.278 92.6348L327.244 11.9762C324.001 4.69414 316.686 0 308.62 0V504.248L308.967 504.212Z" fill="#E6FC00"/>
<path d="M416.519 350.488C412.16 340.233 400.166 335.468 389.886 339.807L328.787 365.681V248.267C328.787 237.13 319.757 228.1 308.62 228.1C297.482 228.1 288.453 237.13 288.453 248.267V365.68L227.746 339.808C216.491 335.053 203.393 341.274 200.313 353.694C197.896 363.441 203.807 373.407 213.049 377.332L288.451 409.345V597.834C288.451 608.971 297.481 618.001 308.619 618.001C319.756 618.001 328.786 608.971 328.786 597.834V409.666L405.83 376.937C416.087 372.578 420.865 360.742 416.519 350.488Z" fill="#2F5B04"/>
</g>
<defs>
<clipPath id="clip0_14_17">
<rect width="618" height="618" fill="white"/>
</clipPath>
</defs>
</svg>
